<svg width="196" height="42" viewBox="0 0 196 42" fill="none" xmlns="http://www.w3.org/2000/svg">
<path d="M18.7539 11.8979C20.0465 12.3047 21.9641 13.6512 22.8855 14.5379C23.1907 14.8314 23.7586 14.8136 24.1261 14.5379L27.7104 10.9995C27.9861 10.7237 27.9861 10.0805 27.8021 9.75883C26.4866 8.48448 24.0222 6.78224 22.1364 6.04395L18.7539 11.8979Z" fill="url(#paint0_linear_6862_4084)"/>
<path d="M7.37459 24.0592C7.21026 23.2807 7.12268 22.4492 7.12268 21.569C7.12268 16.5765 9.81234 12.7319 14.399 11.9023L18.2974 5.15557C17.6438 5.0713 16.9814 5.02637 16.3133 5.02637C6.80107 5.02637 0 11.8733 0 21.569C0 25.5274 1.12031 28.9221 3.02434 31.5878L7.37459 24.0592Z" fill="url(#paint1_linear_6862_4084)"/>
<path d="M16.3152 31.4021C13.9509 31.4021 11.7875 30.5777 10.1546 29.0791L6.63672 35.1666C9.3446 37.0692 12.692 38.1114 16.3152 38.1114C20.7267 38.1114 24.9084 36.1811 27.803 33.4241C28.0329 33.1942 27.9411 32.551 27.803 32.2294L24.3105 28.7368C23.8513 28.3693 23.208 28.3234 22.8864 28.5992C21.1401 30.3455 18.8423 31.4021 16.3152 31.4021Z" fill="url(#paint2_linear_6862_4084)"/>
<path d="M7.23797 25.7028C7.33348 25.5459 7.39904 25.3923 7.43415 25.2416C7.46973 25.0908 7.48002 24.8577 7.46597 24.5412L7.26984 20.1241C7.26 19.9054 7.22909 19.7313 7.17666 19.602C7.12423 19.4733 7.06572 19.4125 7.00064 19.4195C6.92667 19.4274 6.85504 19.4962 6.78622 19.6259L1.28475 29.2145C1.18971 29.3713 1.1242 29.5253 1.08861 29.6761C1.0535 29.8263 1.0427 30.06 1.05675 30.376L1.25339 34.7936C1.26275 35.0122 1.29414 35.1864 1.34611 35.3156C1.39854 35.4439 1.45752 35.5052 1.52213 35.4982C1.59656 35.4902 1.66819 35.4214 1.73701 35.2917L7.23797 25.7028Z" fill="url(#paint3_linear_6862_4084)"/>
<path d="M17.992 6.28381C18.087 6.12698 18.153 5.97344 18.1881 5.82269C18.2232 5.67194 18.234 5.43879 18.2199 5.12231L18.0233 0.705127C18.014 0.486493 17.9826 0.312362 17.9306 0.183148C17.8782 0.0544022 17.8197 -0.0064778 17.7546 0.000544708C17.6802 0.00850355 17.6085 0.0773314 17.5397 0.207014L12.0387 9.79603C11.9432 9.95239 11.8777 10.1064 11.8426 10.2572C11.807 10.4079 11.7967 10.6411 11.8107 10.9571L12.0069 15.3747C12.0167 15.5933 12.0476 15.7675 12.1001 15.8967C12.1525 16.025 12.211 16.0863 12.2761 16.0793C12.35 16.0713 12.4217 16.0025 12.4905 15.8728L17.992 6.28381Z" fill="url(#paint4_linear_6862_4084)"/>
<path d="M11.6052 31.4801C11.7003 31.3233 11.7663 31.1697 11.8014 31.019C11.8365 30.8682 11.8473 30.6351 11.8333 30.3186L11.6371 25.9015C11.6272 25.6824 11.5959 25.5087 11.5439 25.3794C11.4915 25.2507 11.4329 25.1898 11.3679 25.1968C11.2934 25.2048 11.2218 25.2736 11.153 25.4033L5.65203 34.9919C5.55652 35.1487 5.49096 35.3027 5.45585 35.4534C5.42027 35.6037 5.40998 35.8373 5.42403 36.1534L5.62021 40.571C5.63004 40.7896 5.6609 40.9638 5.71334 41.093C5.76577 41.2213 5.82433 41.2826 5.8894 41.2756C5.96338 41.2672 6.03496 41.1983 6.10378 41.0687L11.6052 31.4801Z" fill="url(#paint5_linear_6862_4084)"/>
<path d="M86.3011 21.0984C86.729 20.9074 89.7726 19.383 89.7726 14.6044C89.7726 10.1433 86.4435 6 78.6929 6H65.3788C64.2856 6 64 6.52388 64 7.38109V35.958C64 36.8152 64.2856 37.3391 65.3788 37.3391H79.3587C85.9682 37.3391 90.6757 34.2436 90.6757 28.1944C90.6757 23.0511 86.6813 21.2407 86.3011 21.0984ZM79.4537 30.5759H71.4654V12.7154H78.6929C81.1658 12.7154 82.6396 13.2313 82.6396 15.3591C82.6396 17.2004 81.4509 18.1925 78.6929 18.1925H78.075C76.9813 18.1925 76.6957 18.7168 76.6957 19.5736V23.1934C76.6957 24.0511 76.9813 24.575 78.075 24.575H79.1686C81.4509 24.575 83.1152 25.2416 83.1152 27.48C83.1152 29.6232 81.7838 30.5759 79.4537 30.5759Z" fill="url(#paint6_linear_6862_4084)"/>
<path d="M148.925 35.4591L142.215 25.6796C145.165 24.6791 148.83 21.1945 148.83 16.1856C148.83 13.1299 147.831 10.415 146.069 8.70055C144.071 6.70007 141.786 5.65234 136.599 5.65234H124.606C123.511 5.65234 123.273 6.17622 123.273 7.03344V35.6019C123.273 36.7054 123.75 36.991 124.606 36.991H129.317C130.174 36.991 130.698 36.7054 130.698 35.6019V12.32H137.027C139.502 12.32 141.406 13.8916 141.406 16.3762C141.406 18.6149 139.217 20.2418 136.884 20.2418H135.933C134.838 20.2418 134.553 20.7662 134.553 21.6234V25.4413C134.553 26.7751 134.648 27.299 135.076 27.8706L140.216 35.5541C140.882 36.5626 141.453 36.991 142.596 36.991H148.211C149.116 36.991 149.353 36.1258 148.925 35.4591Z" fill="url(#paint7_linear_6862_4084)"/>
<path d="M185.998 30.5967L180.422 15.3415L172.725 36.0349C172.571 36.4038 172.394 36.6571 172.194 36.7957C171.995 36.9338 171.68 37.0031 171.25 37.0031H165.673C165.12 37.0031 164.844 36.7419 164.844 36.2194C164.844 36.0045 164.89 35.7587 164.982 35.482L176.919 7.04605C177.134 6.52358 177.372 6.16259 177.633 5.96269C177.894 5.76325 178.27 5.66309 178.762 5.66309H182.126C182.618 5.66309 182.987 5.76325 183.232 5.96269C183.479 6.16259 183.708 6.52358 183.924 7.04605L195.861 35.482C195.953 35.7587 195.999 36.0045 195.999 36.2194C195.999 36.7419 195.723 37.0031 195.169 37.0031H189.593C189.163 37.0031 188.848 36.9338 188.648 36.7957C188.449 36.6571 188.272 36.4038 188.118 36.0349L185.998 30.5967Z" fill="url(#paint8_linear_6862_4084)"/>
<path d="M155.242 37.0031C154.505 37.0031 153.974 36.8416 153.652 36.519C153.329 36.1965 153.168 35.6969 153.168 35.0214V7.6907C153.168 7.01513 153.329 6.50766 153.652 6.17011C153.974 5.8321 154.505 5.66309 155.242 5.66309H158.698C159.467 5.66309 160.004 5.82461 160.311 6.14671C160.619 6.46927 160.773 6.98377 160.773 7.6907V35.0214C160.773 35.6969 160.619 36.1965 160.311 36.519C160.004 36.8416 159.467 37.0031 158.698 37.0031H155.242Z" fill="url(#paint9_linear_6862_4084)"/>
<path d="M43.2704 37.0031C42.5331 37.0031 42.0031 36.8416 41.6805 36.519C41.358 36.1965 41.1965 35.6969 41.1965 35.0214V26.3102L30.0433 7.18413C29.8893 6.93834 29.8125 6.69209 29.8125 6.44631C29.8125 6.23142 29.8972 6.04698 30.0658 5.89342C30.2353 5.73986 30.4581 5.66309 30.7343 5.66309H36.2648C36.695 5.66309 37.0026 5.73189 37.1866 5.87047C37.371 6.00858 37.5555 6.24734 37.74 6.58442L45.0218 19.3513L52.3037 6.58442C52.4877 6.24734 52.6721 6.00858 52.8566 5.87047C53.0411 5.73189 53.3327 5.66309 53.7321 5.66309H59.3089C59.5851 5.66309 59.808 5.73986 59.9775 5.89342C60.146 6.04698 60.2307 6.23142 60.2307 6.44631C60.2307 6.69209 60.1539 6.93834 60.0004 7.18413L48.8468 26.3565V35.0214C48.8468 35.6969 48.6853 36.1965 48.3632 36.519C48.0406 36.8416 47.4952 37.0031 46.7269 37.0031H43.2704Z" fill="url(#paint10_linear_6862_4084)"/>
<path d="M97.2966 37.0031C96.5593 37.0031 96.0288 36.8416 95.7063 36.519C95.3842 36.1965 95.2227 35.6969 95.2227 35.0214V7.6907C95.2227 7.01513 95.3846 6.50719 95.7063 6.17011C96.0284 5.83257 96.5593 5.66309 97.2966 5.66309H117.253C117.991 5.66309 118.498 5.80867 118.774 6.1008C119.051 6.39247 119.19 6.89341 119.19 7.59894V9.30354C119.19 10.0095 119.05 10.518 118.774 10.8251C118.498 11.1317 117.99 11.2862 117.253 11.2862H102.828V18.5676H112.321C113.059 18.5676 113.566 18.7137 113.842 19.0058C114.119 19.2975 114.257 19.7965 114.257 20.5035V22.1163C114.257 22.8233 114.119 23.3298 113.842 23.6374C113.566 23.945 113.059 24.0985 112.321 24.0985H102.828V31.4259H116.377C117.114 31.4259 117.622 31.5799 117.898 31.887C118.175 32.1946 118.313 32.7016 118.313 33.4081V35.0677C118.313 35.7737 118.175 36.2732 117.898 36.5654C117.622 36.857 117.114 37.0031 116.377 37.0031H97.2966Z" fill="url(#paint11_linear_6862_4084)"/>
<defs>
<linearGradient id="paint0_linear_6862_4084" x1="17.0571" y1="4.42084" x2="21.1614" y2="13.2979" gradientUnits="userSpaceOnUse">
<stop stop-color="#E9ECF6"/>
<stop offset="1" stop-color="white"/>
</linearGradient>
<linearGradient id="paint1_linear_6862_4084" x1="-3.38339" y1="0.0752223" x2="12.112" y2="21.9822" gradientUnits="userSpaceOnUse">
<stop stop-color="#E9ECF6"/>
<stop offset="1" stop-color="white"/>
</linearGradient>
<linearGradient id="paint2_linear_6862_4084" x1="2.69693" y1="26.6157" x2="5.2294" y2="38.0444" gradientUnits="userSpaceOnUse">
<stop stop-color="#E9ECF6"/>
<stop offset="1" stop-color="white"/>
</linearGradient>
<linearGradient id="paint3_linear_6862_4084" x1="-0.13658" y1="16.4216" x2="9.61827" y2="24.4164" gradientUnits="userSpaceOnUse">
<stop stop-color="#E9ECF6"/>
<stop offset="1" stop-color="white"/>
</linearGradient>
<linearGradient id="paint4_linear_6862_4084" x1="10.6173" y1="-2.99734" x2="20.3722" y2="4.99734" gradientUnits="userSpaceOnUse">
<stop stop-color="#E9ECF6"/>
<stop offset="1" stop-color="white"/>
</linearGradient>
<linearGradient id="paint5_linear_6862_4084" x1="4.23061" y1="22.199" x2="13.9855" y2="30.1937" gradientUnits="userSpaceOnUse">
<stop stop-color="#E9ECF6"/>
<stop offset="1" stop-color="white"/>
</linearGradient>
<linearGradient id="paint6_linear_6862_4084" x1="59.0674" y1="0.158286" x2="75.7871" y2="29.3664" gradientUnits="userSpaceOnUse">
<stop stop-color="#E9ECF6"/>
<stop offset="1" stop-color="white"/>
</linearGradient>
<linearGradient id="paint7_linear_6862_4084" x1="118.492" y1="-0.189285" x2="135.471" y2="28.5629" gradientUnits="userSpaceOnUse">
<stop stop-color="#E9ECF6"/>
<stop offset="1" stop-color="white"/>
</linearGradient>
<linearGradient id="paint8_linear_6862_4084" x1="159.083" y1="-0.178807" x2="174.409" y2="31.0897" gradientUnits="userSpaceOnUse">
<stop stop-color="#E9ECF6"/>
<stop offset="1" stop-color="white"/>
</linearGradient>
<linearGradient id="paint9_linear_6862_4084" x1="151.762" y1="-0.178807" x2="167.237" y2="7.52787" gradientUnits="userSpaceOnUse">
<stop stop-color="#E9ECF6"/>
<stop offset="1" stop-color="white"/>
</linearGradient>
<linearGradient id="paint10_linear_6862_4084" x1="24.1878" y1="-0.178807" x2="39.7374" y2="30.7953" gradientUnits="userSpaceOnUse">
<stop stop-color="#E9ECF6"/>
<stop offset="1" stop-color="white"/>
</linearGradient>
<linearGradient id="paint11_linear_6862_4084" x1="90.7909" y1="-0.178807" x2="108.365" y2="27.4039" gradientUnits="userSpaceOnUse">
<stop stop-color="#E9ECF6"/>
<stop offset="1" stop-color="white"/>
</linearGradient>
</defs>
</svg>
